<svg width="52" height="52" viewBox="0 0 52 52" fill="none" xmlns="http://www.w3.org/2000/svg">
<rect width="52" height="52" rx="10" fill="#FFF5F5"/>
<mask id="mask0_230_2118" style="mask-type:alpha" maskUnits="userSpaceOnUse" x="14" y="14" width="24" height="24">
<rect x="14" y="14" width="24" height="24" fill="#D9D9D9"/>
</mask>
<g mask="url(#mask0_230_2118)">
<path d="M21.25 18V23.8077C21.25 23.9909 21.3253 24.1246 21.476 24.2086C21.6266 24.2926 21.7788 24.2878 21.9327 24.1942L23.5 23.25L25.0673 24.1942C25.2211 24.2878 25.3734 24.2926 25.524 24.2086C25.6746 24.1246 25.7499 23.9909 25.7499 23.8077V18H21.25ZM31.75 36.3461C30.5013 36.3461 29.4391 35.9083 28.5634 35.0326C27.6878 34.157 27.25 33.0948 27.25 31.8461C27.25 30.5974 27.6894 29.5352 28.5683 28.6596C29.4471 27.784 30.5237 27.3462 31.798 27.3462C33.0211 27.3462 34.0688 27.784 34.9413 28.6596C35.8137 29.5352 36.2499 30.5974 36.2499 31.8461C36.2499 33.0948 35.8121 34.157 34.9365 35.0326C34.0608 35.9083 32.9987 36.3461 31.75 36.3461ZM31.4 33.573L33.4884 32.2038C33.6294 32.1102 33.6999 31.9846 33.6999 31.8269C33.6999 31.6692 33.6294 31.5436 33.4884 31.45L31.4 30.0807C31.2461 29.9872 31.0897 29.9816 30.9307 30.0641C30.7718 30.1465 30.6923 30.2777 30.6923 30.4577V33.1961C30.6923 33.376 30.7718 33.5072 30.9307 33.5897C31.0897 33.6722 31.2461 33.6666 31.4 33.573ZM25.25 31.842C25.25 32.4992 25.3481 33.1359 25.5442 33.7523C25.7404 34.3687 26.0141 34.9512 26.3654 35.5H19.3077C18.8106 35.5 18.385 35.3229 18.031 34.9689C17.677 34.6149 17.5 34.1894 17.5 33.6923V18.3077C17.5 17.8106 17.677 17.385 18.031 17.031C18.385 16.677 18.8106 16.5 19.3077 16.5H30.6922C31.1894 16.5 31.6149 16.677 31.9689 17.031C32.3229 17.385 32.5 17.8106 32.5 18.3077V25.3866C32.3823 25.3763 32.2647 25.3686 32.147 25.3635C32.0294 25.3583 31.9117 25.3558 31.7941 25.3558C29.978 25.3558 28.4332 25.9857 27.1599 27.2457C25.8866 28.5056 25.25 30.0377 25.25 31.842Z" fill="#E92500"/>
</g>
</svg>
