<svg width="24" height="25" viewBox="0 0 24 25" fill="none" xmlns="http://www.w3.org/2000/svg">
<path fill-rule="evenodd" clip-rule="evenodd" d="M3.11775 12.967C2.96075 12.676 2.96075 12.323 3.11775 12.032C5.00975 8.533 8.50475 5.5 11.9998 5.5C15.4948 5.5 18.9898 8.533 20.8818 12.033C21.0388 12.324 21.0388 12.677 20.8818 12.968C18.9898 16.467 15.4948 19.5 11.9998 19.5C8.50475 19.5 5.00975 16.467 3.11775 12.967Z" stroke="#828282" stroke-width="1.5" stroke-linecap="round" stroke-linejoin="round"/>
<path d="M14.1213 10.3787C15.2929 11.5502 15.2929 13.4497 14.1213 14.6213C12.9497 15.7929 11.0502 15.7929 9.87868 14.6213C8.70711 13.4497 8.70711 11.5502 9.87868 10.3787C11.0502 9.20711 12.9497 9.20711 14.1213 10.3787" stroke="#828282" stroke-width="1.4286" stroke-linecap="round" stroke-linejoin="round"/>
</svg>
