<svg width="32" height="32" viewBox="0 0 32 32" fill="none" xmlns="http://www.w3.org/2000/svg">
<rect x="0.5" y="0.5" width="31" height="31" rx="15.5" stroke="black"/>
<path d="M24.9324 12.227C24.8801 11.1195 24.6622 9.69802 23.4769 8.512C22.2916 7.32598 20.8709 7.10797 19.764 7.05564C18.448 6.98588 14.5346 6.97716 13.2273 7.05564C12.1204 7.10797 10.6997 7.31726 9.51436 8.512C8.32903 9.69802 8.11113 11.1195 8.05883 12.227C7.98039 13.5439 7.98039 17.4595 8.05883 18.7676C8.11113 19.8751 8.32031 21.2966 9.51436 22.4913C10.7084 23.6773 12.1291 23.8954 13.2273 23.9477C13.8897 23.9826 15.197 24 16.5043 24C17.8117 24 19.1104 23.9826 19.764 23.9477C20.8709 23.8954 22.2916 23.6861 23.4856 22.4913C24.671 21.3053 24.8889 19.8838 24.9412 18.7763C25.0196 17.4595 25.0196 13.5526 24.9412 12.2357L24.9324 12.227ZM23.6251 18.6978C23.5554 20.0146 23.2416 20.8693 22.5443 21.5582C21.8558 22.2471 21.0017 22.5698 19.6856 22.6308C18.4044 22.7006 14.5782 22.7006 13.2796 22.6308C11.9722 22.5611 11.1181 22.2384 10.4208 21.5495C9.73227 20.8605 9.40977 20.0059 9.34876 18.6891C9.27904 17.4333 9.27904 13.5439 9.34876 12.2793C9.41849 10.9625 9.73227 10.1079 10.4208 9.41895C11.1093 8.73001 11.9722 8.40735 13.2796 8.34631C13.9245 8.31142 15.197 8.29398 16.4782 8.29398C17.7594 8.29398 19.0406 8.31142 19.6856 8.34631C21.0017 8.41607 21.8558 8.73001 22.5443 9.42767C23.2329 10.1166 23.5554 10.9712 23.6164 12.2881C23.6861 13.5787 23.6861 17.4071 23.6164 18.6978H23.6251ZM16.4869 11.355C14.2034 11.355 12.347 13.2125 12.347 15.4973C12.347 17.7821 14.2034 19.6396 16.4869 19.6396C18.7704 19.6396 20.6269 17.7821 20.6269 15.4973C20.6269 13.2125 18.7704 11.355 16.4869 11.355ZM16.4869 18.3315C14.9268 18.3315 13.6543 17.0583 13.6543 15.4973C13.6543 13.9363 14.9268 12.6631 16.4869 12.6631C18.047 12.6631 19.3195 13.9363 19.3195 15.4973C19.3195 17.0583 18.047 18.3315 16.4869 18.3315ZM22.1696 10.7009C22.1696 11.1805 21.7773 11.573 21.298 11.573C20.8186 11.573 20.4264 11.1805 20.4264 10.7009C20.4264 10.2213 20.8099 9.82883 21.298 9.82883C21.7773 9.82883 22.1696 10.2213 22.1696 10.7009Z" fill="black"/>
</svg>
