<svg width="32" height="32" viewBox="0 0 32 32" fill="none" xmlns="http://www.w3.org/2000/svg">
<rect x="0.5" y="0.5" width="31" height="31" rx="15.5" stroke="black"/>
<path d="M11.7828 10.1665C11.7826 10.6086 11.6068 11.0324 11.2941 11.3448C10.9813 11.6572 10.5573 11.8326 10.1153 11.8324C9.67327 11.8321 9.24943 11.6563 8.93703 11.3436C8.62462 11.0309 8.44924 10.6069 8.44946 10.1649C8.44968 9.72283 8.62549 9.29899 8.93821 8.98659C9.25092 8.67419 9.67494 8.4988 10.117 8.49902C10.559 8.49924 10.9828 8.67505 11.2952 8.98777C11.6076 9.30049 11.783 9.7245 11.7828 10.1665ZM11.8328 13.0665H8.49946V23.4999H11.8328V13.0665ZM17.0995 13.0665H13.7828V23.4999H17.0661V18.0249C17.0661 14.9749 21.0411 14.6915 21.0411 18.0249V23.4999H24.3328V16.8915C24.3328 11.7499 18.4495 11.9415 17.0661 14.4665L17.0995 13.0665Z" fill="black"/>
</svg>
