<svg width="20" height="20" viewBox="0 0 20 20" fill="none" xmlns="http://www.w3.org/2000/svg">
<path d="M19.75 4V16C19.75 18.418 18.418 19.75 16 19.75H10C7.582 19.75 6.25 18.418 6.25 16V15C6.25 14.586 6.586 14.25 7 14.25C7.414 14.25 7.75 14.586 7.75 15V16C7.75 17.577 8.423 18.25 10 18.25H16C17.577 18.25 18.25 17.577 18.25 16V4C18.25 2.423 17.577 1.75 16 1.75H10C8.423 1.75 7.75 2.423 7.75 4V5C7.75 5.414 7.414 5.75 7 5.75C6.586 5.75 6.25 5.414 6.25 5V4C6.25 1.582 7.582 0.25 10 0.25H16C18.418 0.25 19.75 1.582 19.75 4ZM10.47 12.47C10.177 12.763 10.177 13.238 10.47 13.531C10.616 13.677 10.808 13.751 11 13.751C11.192 13.751 11.384 13.678 11.53 13.531L14.53 10.531C14.599 10.462 14.654 10.379 14.692 10.287C14.768 10.104 14.768 9.89699 14.692 9.71399C14.654 9.62199 14.599 9.539 14.53 9.47L11.53 6.47C11.237 6.177 10.762 6.177 10.469 6.47C10.176 6.763 10.176 7.23801 10.469 7.53101L12.189 9.25101H1C0.586 9.25101 0.25 9.58701 0.25 10.001C0.25 10.415 0.586 10.751 1 10.751H12.189L10.47 12.47Z" fill="white"/>
</svg>
