<svg width="167" height="37" viewBox="0 0 167 37" fill="none" xmlns="http://www.w3.org/2000/svg">
<path d="M64.9062 28.7344C63.8646 29.6198 62.7031 30.3021 61.4219 30.7812C60.1406 31.25 58.8073 31.4844 57.4219 31.4844C56.3594 31.4844 55.3333 31.3438 54.3438 31.0625C53.3646 30.7917 52.4479 30.4062 51.5938 29.9062C50.7396 29.3958 49.9583 28.7917 49.25 28.0938C48.5417 27.3854 47.9375 26.6042 47.4375 25.75C46.9375 24.8854 46.5469 23.9583 46.2656 22.9688C45.9948 21.9792 45.8594 20.9531 45.8594 19.8906C45.8594 18.8281 45.9948 17.8073 46.2656 16.8281C46.5469 15.849 46.9375 14.9323 47.4375 14.0781C47.9375 13.2135 48.5417 12.4323 49.25 11.7344C49.9583 11.026 50.7396 10.4219 51.5938 9.92188C52.4479 9.42188 53.3646 9.03646 54.3438 8.76562C55.3333 8.48438 56.3594 8.34375 57.4219 8.34375C58.8073 8.34375 60.1406 8.58333 61.4219 9.0625C62.7031 9.53125 63.8646 10.2083 64.9062 11.0938L62.5625 15C61.8854 14.3125 61.1042 13.776 60.2188 13.3906C59.3333 12.9948 58.401 12.7969 57.4219 12.7969C56.4427 12.7969 55.5208 12.9844 54.6562 13.3594C53.8021 13.7344 53.0521 14.2448 52.4062 14.8906C51.7604 15.526 51.25 16.276 50.875 17.1406C50.5 17.9948 50.3125 18.9115 50.3125 19.8906C50.3125 20.8802 50.5 21.8073 50.875 22.6719C51.25 23.5365 51.7604 24.2917 52.4062 24.9375C53.0521 25.5833 53.8021 26.0938 54.6562 26.4688C55.5208 26.8438 56.4427 27.0312 57.4219 27.0312C57.9844 27.0312 58.5312 26.9635 59.0625 26.8281C59.5938 26.6927 60.099 26.5052 60.5781 26.2656V19.8906H64.9062V28.7344ZM84.0781 22.4844C84.0781 23.7344 83.8542 24.901 83.4062 25.9844C82.9583 27.0573 82.349 27.9896 81.5781 28.7812C80.8073 29.5625 79.901 30.1823 78.8594 30.6406C77.8281 31.0885 76.7188 31.3125 75.5312 31.3125C74.3542 31.3125 73.2448 31.0885 72.2031 30.6406C71.1719 30.1823 70.2656 29.5625 69.4844 28.7812C68.7135 27.9896 68.1042 27.0573 67.6562 25.9844C67.2083 24.901 66.9844 23.7344 66.9844 22.4844C66.9844 21.2135 67.2083 20.0365 67.6562 18.9531C68.1042 17.8698 68.7135 16.9375 69.4844 16.1562C70.2656 15.3646 71.1719 14.7448 72.2031 14.2969C73.2448 13.849 74.3542 13.625 75.5312 13.625C76.7188 13.625 77.8281 13.8385 78.8594 14.2656C79.901 14.6823 80.8073 15.2812 81.5781 16.0625C82.349 16.8333 82.9583 17.7656 83.4062 18.8594C83.8542 19.9427 84.0781 21.151 84.0781 22.4844ZM79.7812 22.4844C79.7812 21.7969 79.6667 21.1771 79.4375 20.625C79.2188 20.0625 78.9167 19.5833 78.5312 19.1875C78.1458 18.7812 77.6927 18.474 77.1719 18.2656C76.6615 18.0469 76.1146 17.9375 75.5312 17.9375C74.9479 17.9375 74.3958 18.0469 73.875 18.2656C73.3646 18.474 72.9167 18.7812 72.5312 19.1875C72.1562 19.5833 71.8594 20.0625 71.6406 20.625C71.4219 21.1771 71.3125 21.7969 71.3125 22.4844C71.3125 23.1302 71.4219 23.7292 71.6406 24.2812C71.8594 24.8333 72.1562 25.3125 72.5312 25.7188C72.9167 26.125 73.3646 26.4479 73.875 26.6875C74.3958 26.9167 74.9479 27.0312 75.5312 27.0312C76.1146 27.0312 76.6615 26.9219 77.1719 26.7031C77.6927 26.4844 78.1458 26.1771 78.5312 25.7812C78.9167 25.3854 79.2188 24.9062 79.4375 24.3438C79.6667 23.7812 79.7812 23.1615 79.7812 22.4844ZM91.375 31H86.8906V8.59375H91.375V17.5625H100.328V8.59375H104.812V31H100.328V22.0469H91.375V31ZM113.562 9.71875C113.562 10.1146 113.484 10.4844 113.328 10.8281C113.182 11.1719 112.979 11.474 112.719 11.7344C112.458 11.9844 112.151 12.1875 111.797 12.3438C111.453 12.4896 111.083 12.5625 110.688 12.5625C110.292 12.5625 109.917 12.4896 109.562 12.3438C109.219 12.1875 108.917 11.9844 108.656 11.7344C108.406 11.474 108.203 11.1719 108.047 10.8281C107.901 10.4844 107.828 10.1146 107.828 9.71875C107.828 9.33333 107.901 8.96875 108.047 8.625C108.203 8.27083 108.406 7.96875 108.656 7.71875C108.917 7.45833 109.219 7.25521 109.562 7.10938C109.917 6.95312 110.292 6.875 110.688 6.875C111.083 6.875 111.453 6.95312 111.797 7.10938C112.151 7.25521 112.458 7.45833 112.719 7.71875C112.979 7.96875 113.182 8.27083 113.328 8.625C113.484 8.96875 113.562 9.33333 113.562 9.71875ZM112.828 31H108.531V14.2656H112.828V31ZM120.359 31H116.094V14.2656H117.125L118.531 16.25C119.219 15.625 120 15.1458 120.875 14.8125C121.75 14.4688 122.656 14.2969 123.594 14.2969H127.359V18.5469H123.594C123.146 18.5469 122.724 18.6302 122.328 18.7969C121.932 18.9635 121.589 19.1927 121.297 19.4844C121.005 19.776 120.776 20.1198 120.609 20.5156C120.443 20.9115 120.359 21.3333 120.359 21.7812V31ZM135.688 26.9062C135.854 26.9583 136.021 26.9948 136.188 27.0156C136.354 27.026 136.521 27.0312 136.688 27.0312C137.104 27.0312 137.505 26.974 137.891 26.8594C138.276 26.7448 138.635 26.5833 138.969 26.375C139.312 26.1562 139.615 25.8958 139.875 25.5938C140.146 25.2812 140.365 24.9375 140.531 24.5625L143.656 27.7031C143.26 28.2656 142.802 28.7708 142.281 29.2188C141.771 29.6667 141.214 30.0469 140.609 30.3594C140.016 30.6719 139.385 30.9062 138.719 31.0625C138.062 31.2292 137.385 31.3125 136.688 31.3125C135.51 31.3125 134.401 31.0938 133.359 30.6562C132.328 30.2188 131.422 29.6094 130.641 28.8281C129.87 28.0469 129.26 27.1198 128.812 26.0469C128.365 24.9635 128.141 23.776 128.141 22.4844C128.141 21.1615 128.365 19.9531 128.812 18.8594C129.26 17.7656 129.87 16.8333 130.641 16.0625C131.422 15.2917 132.328 14.6927 133.359 14.2656C134.401 13.8385 135.51 13.625 136.688 13.625C137.385 13.625 138.068 13.7083 138.734 13.875C139.401 14.0417 140.031 14.2812 140.625 14.5938C141.229 14.9062 141.792 15.2917 142.312 15.75C142.833 16.1979 143.292 16.7031 143.688 17.2656L135.688 26.9062ZM137.875 18.1094C137.677 18.0365 137.479 17.9896 137.281 17.9688C137.094 17.9479 136.896 17.9375 136.688 17.9375C136.104 17.9375 135.552 18.0469 135.031 18.2656C134.521 18.474 134.073 18.776 133.688 19.1719C133.312 19.5677 133.016 20.0469 132.797 20.6094C132.578 21.1615 132.469 21.7865 132.469 22.4844C132.469 22.6406 132.474 22.8177 132.484 23.0156C132.505 23.2135 132.531 23.4167 132.562 23.625C132.604 23.8229 132.651 24.0156 132.703 24.2031C132.755 24.3906 132.823 24.5573 132.906 24.7031L137.875 18.1094Z" fill="url(#paint0_linear_31_2600)"/>
<ellipse cx="18.2568" cy="19" rx="18.2568" ry="18" fill="#1C89F4"/>
<path d="M25.3623 21.3008C24.5811 21.9648 23.71 22.4766 22.749 22.8359C21.7881 23.1875 20.7881 23.3633 19.749 23.3633C18.9521 23.3633 18.1826 23.2578 17.4404 23.0469C16.7061 22.8438 16.0186 22.5547 15.3779 22.1797C14.7373 21.7969 14.1514 21.3438 13.6201 20.8203C13.0889 20.2891 12.6357 19.7031 12.2607 19.0625C11.8857 18.4141 11.5928 17.7188 11.3818 16.9766C11.1787 16.2344 11.0771 15.4648 11.0771 14.668C11.0771 13.8711 11.1787 13.1055 11.3818 12.3711C11.5928 11.6367 11.8857 10.9492 12.2607 10.3086C12.6357 9.66016 13.0889 9.07422 13.6201 8.55078C14.1514 8.01953 14.7373 7.56641 15.3779 7.19141C16.0186 6.81641 16.7061 6.52734 17.4404 6.32422C18.1826 6.11328 18.9521 6.00781 19.749 6.00781C20.7881 6.00781 21.7881 6.1875 22.749 6.54688C23.71 6.89844 24.5811 7.40625 25.3623 8.07031L23.6045 11C23.0967 10.4844 22.5107 10.082 21.8467 9.79297C21.1826 9.49609 20.4834 9.34766 19.749 9.34766C19.0146 9.34766 18.3232 9.48828 17.6748 9.76953C17.0342 10.0508 16.4717 10.4336 15.9873 10.918C15.5029 11.3945 15.1201 11.957 14.8389 12.6055C14.5576 13.2461 14.417 13.9336 14.417 14.668C14.417 15.4102 14.5576 16.1055 14.8389 16.7539C15.1201 17.4023 15.5029 17.9688 15.9873 18.4531C16.4717 18.9375 17.0342 19.3203 17.6748 19.6016C18.3232 19.8828 19.0146 20.0234 19.749 20.0234C20.1709 20.0234 20.5811 19.9727 20.9795 19.8711C21.3779 19.7695 21.7568 19.6289 22.1162 19.4492V14.668H25.3623V21.3008Z" fill="white"/>
<ellipse cx="10.4322" cy="27.7429" rx="2.0865" ry="2.05714" fill="white"/>
<ellipse cx="18.7789" cy="27.7429" rx="2.0865" ry="2.05714" fill="white"/>
<path d="M28.6887 27.9999C28.6887 29.1833 27.7156 30.1427 26.5152 30.1427C25.3149 30.1427 24.3418 29.1833 24.3418 27.9999C24.3418 26.8164 25.3149 25.857 26.5152 25.857C27.7156 25.857 28.6887 26.8164 28.6887 27.9999Z" fill="white"/>
<defs>
<linearGradient id="paint0_linear_31_2600" x1="106" y1="0" x2="106" y2="37" gradientUnits="userSpaceOnUse">
<stop stop-color="#1C89F4"/>
<stop offset="1" stop-color="#1C81F3"/>
</linearGradient>
</defs>
</svg>
